# xmcd CD database file
# Copyright (C) 1997 Ti Kan
#
# Track frame offsets:
#  150
#  9435
#  20567
#  31419
#  42237
#  54532
#  65910
#  73812
#  87422
#  98077
#  109740
#  124347
#  134065
#  143770
#  159045
#  171357
#  183732
#  197959
#  215032
#  230957
#
# Disc length: 3291 seconds
#
# Revision: 1
# Processed by: cddbd v1.4b41PL1 Copyright (c) Steve Scherf et al.
# Submitted via: CDWizzard Release:4.32
#
DISCID=360cd914
DTITLE=Various Artist - Treasured Tunes Vol 3
DYEAR=1900
DGENRE=
TTITLE0=Let The Four Winds Blow
TTITLE1=Itchy Twitchy Feeling
TTITLE2=Broken-Hearted Melody
TTITLE3=Sandy
TTITLE4=Barbara
TTITLE5=Baby Blue
TTITLE6=Tonight I Fell In Love
TTITLE7=Come On Little Angel
TTITLE8=Loop De Loop
TTITLE9=Funny Man
TTITLE10=Teenage Heaven
TTITLE11=Al Di La
TTITLE12=Mohair Sam
TTITLE13=Sweet Dreams
TTITLE14=Friday On My Mind
TTITLE15=Hold Me Tight
TTITLE16=5-10-15-20 (25-30 Years Of Love)
TTITLE17=Beyond The Blue Horizon
TTITLE18=Sugar Baby Love
TTITLE19=Do You Wanna Make Love
EXTD=
EXTT0=Roy Brown
EXTT1=Bobby Hendricks
EXTT2=Sarah Vaughn
EXTT3=Larry Hall
EXTT4=Temptations, The
EXTT5=Echoes, The
EXTT6=Tokens, The
EXTT7=Belmonts, The
EXTT8=Johnny Thunder
EXTT9=Ray Stevens
EXTT10=Johnny Cymbal
EXTT11=Ray Charles Singers, The
EXTT12=Charlie Rich
EXTT13=TOMMY McLain
EXTT14=Easybeats, The
EXTT15=Johnny Nash
EXTT16=Presidents, The
EXTT17=Lou Christie
EXTT18=Rubettes, The
EXTT19=Peter McCann
PLAYORDER=
